<svg width="140" height="37" viewBox="0 0 140 37" fill="none" xmlns="http://www.w3.org/2000/svg">
<path d="M128.257 8.46143C129.148 8.4625 130.039 8.46806 130.931 8.47785C131.322 9.57305 132.101 11.1721 132.608 12.2679C133.595 14.3706 134.568 16.4799 135.526 18.5957L138.066 24.1852C138.483 25.1107 139.201 26.8326 139.715 27.6518C138.227 27.7645 136.358 27.7176 134.836 27.7114C134.482 26.4699 133.573 24.8384 133.106 23.5309L129.039 23.5294L123.995 23.5321C123.429 24.8933 122.799 26.3437 122.289 27.7171C120.852 27.7213 119 27.7675 117.603 27.6571C118.134 26.6244 118.695 25.2259 119.19 24.1361L122.477 16.8992C123.56 14.4976 125.397 10.8349 126.256 8.51367L128.257 8.46143Z" fill="#333333"/>
<path d="M128.603 12.9495C128.745 13.0517 131.444 19.6824 131.638 20.2029L128.7 20.2008L125.53 20.1939C125.92 19.0566 126.503 17.782 126.974 16.6587C127.483 15.4444 128.015 14.1185 128.603 12.9495Z" fill="#0E0C0C"/>
<path d="M79.5959 8.46167L90.4873 8.46549L90.483 11.9938L80.1422 12.0039C80.1278 13.3803 80.1269 14.7569 80.1397 16.1334C83.1814 16.158 86.2232 16.1607 89.2641 16.1413C89.2802 17.3035 89.265 18.4942 89.2616 19.6588C86.2902 19.7257 83.1314 19.6728 80.1456 19.6712C80.1159 20.6522 80.1337 21.7368 80.1312 22.7259L80.1422 24.089L90.8749 24.0912C90.9148 25.2571 90.8902 26.5383 90.8893 27.7137L75.6271 27.7113L75.6288 8.48978C76.8969 8.44683 78.316 8.46913 79.5959 8.46167Z" fill="#333333"/>
<path d="M97.3239 8.46109C97.9279 8.45006 98.6124 8.47486 99.2231 8.48332C101.019 12.9854 103.34 17.6306 105.096 22.0743C105.804 20.7459 106.612 18.7604 107.239 17.3553C108.561 14.4133 109.862 11.4617 111.14 8.50098C112.657 8.4635 114.173 8.45661 115.69 8.48041C114.827 10.5093 113.937 12.5274 113.023 14.5344C111.834 17.2836 110.629 20.026 109.408 22.7615C108.683 24.3908 107.968 26.1014 107.178 27.6903C105.746 27.7287 104.12 27.7696 102.702 27.6442C101.943 26.2123 100.797 23.3271 100.078 21.7085L94.2338 8.48523L97.3239 8.46109Z" fill="#333333"/>
<path d="M41.4181 8.19982C45.2068 7.75323 48.2841 8.88119 50.8945 11.533C49.8751 12.3699 48.9848 13.3014 47.9709 14.1393C47.666 13.8633 47.3627 13.5957 47.0427 13.3361C44.7102 11.4442 41.0147 11.4236 38.7239 13.4313C37.5006 14.5225 36.7733 16.0458 36.7033 17.6634C36.4704 22.2715 40.5882 25.1995 45.032 23.8561C46.0809 23.539 46.9183 22.8954 47.7213 22.1802L47.9475 22.017C48.3801 22.1471 50.4194 24.164 50.8762 24.5982C49.1154 26.4705 47.4946 27.3987 44.8798 27.834C39.0898 28.7976 33.0943 25.7556 32.2376 19.6978C31.3637 13.5186 35.1347 9.07102 41.4181 8.19982Z" fill="#333333"/>
<path d="M60.2223 8.46274C60.4324 8.45519 60.5059 8.44234 60.6961 8.52668C60.8472 8.71916 60.7801 12.8527 60.78 13.5359L60.7854 24.0206L70.6403 24.0205C70.6615 25.2355 70.6419 26.4933 70.6377 27.7117L66.8639 27.7171L56.2991 27.7159L56.2953 8.48538C57.5607 8.44773 58.9473 8.46862 60.2223 8.46274Z" fill="#333333"/>
<path d="M18.6027 8.62288C20.1812 8.5752 21.9246 8.97675 23.2845 9.78335C22.7718 10.3197 22.4218 10.6459 21.8538 11.1268C12.559 8.26793 6.79953 18.8438 14.2415 24.5612C16.67 26.4268 19.0281 25.9354 21.829 25.4643C22.4687 25.894 22.7701 26.2865 23.2274 26.8737C19.7303 28.7139 15.1538 28.0631 12.193 25.5287C10.2167 23.8048 9.01384 21.3897 8.84445 18.8054C8.5451 14.3361 11.6504 10.124 16.0484 8.96448C16.892 8.74206 17.7354 8.67579 18.6027 8.62288Z" fill="#333333"/>
<path d="M0.278076 21.2677C0.943175 21.2518 1.65925 21.2725 2.32859 21.2806C2.9126 24.1951 4.23406 27.0109 6.32317 29.1912C7.37167 28.3575 8.35028 27.1799 9.516 26.2336C11.1893 28.1636 13.3288 29.193 15.7303 29.9744C15.6803 30.4961 15.6896 31.3258 15.6797 31.8706C15.0781 31.9875 12.68 30.9619 12.1068 30.6645C11.2528 30.2215 10.3151 29.5618 9.51974 29.0051C8.72571 29.5757 7.2508 31.1808 6.31291 31.9913C2.78274 28.866 1.23929 25.7157 0.278076 21.2677Z" fill="#333333"/>
<path d="M6.37341 4.5127C6.98253 4.88962 8.8137 6.91242 9.51501 7.54079C11.7461 5.78636 12.9856 5.36681 15.6895 4.52762C15.69 5.19199 15.7033 5.85636 15.7294 6.52023C12.8713 7.43654 11.5842 8.2618 9.49372 10.2632C8.67145 9.66194 7.67452 8.5728 6.92528 7.81621L6.34483 7.2934C5.96567 7.63749 5.4826 8.29174 5.1724 8.7093C3.53056 10.9195 2.97438 12.6798 2.27713 15.2413L0.276917 15.2581C1.15908 10.8535 2.88574 7.51782 6.37341 4.5127Z" fill="#333333"/>
<path d="M17.7032 30.3117C21.0877 30.348 22.2128 29.7943 25.1895 28.6243C25.6522 29.1334 25.9507 29.4321 26.4683 29.8866C24.7626 31.2949 22.2232 31.9267 20.0674 32.1192C19.8256 32.1409 19.8135 32.1619 19.687 32.3422C19.7228 33.7236 19.7394 35.1055 19.7366 36.4873C19.1307 36.504 17.9644 36.5552 17.4116 36.4625C14.8029 36.6712 10.0057 34.8887 7.99255 33.2654C8.46612 32.7373 8.92493 32.264 9.47832 31.816C11.6025 33.4559 14.9945 34.4898 17.6957 34.5351L17.7032 30.3117Z" fill="#333333"/>
<path d="M19.392 36.4213C19.3933 34.8756 19.5033 33.8636 19.6871 32.3422C19.7229 33.7236 19.7394 35.1055 19.7366 36.4873C19.1307 36.504 17.9644 36.5552 17.4116 36.4625C17.868 36.3999 18.8873 36.4219 19.392 36.4213Z" fill="#333333"/>
<path d="M18.9328 0L19.7036 0.00811085C19.6749 1.42066 19.6971 2.89254 19.6986 4.30963C22.3227 4.49432 24.2222 5.17245 26.4523 6.51263C26.0009 7.01702 25.6317 7.41526 25.142 7.88275C22.2237 6.76209 21.0973 6.03254 17.6968 6.26549L17.7012 3.40318L17.6981 1.9503C14.2676 2.20799 12.3146 2.9469 9.37503 4.6319C8.85939 4.27911 8.40355 3.79661 7.99402 3.33375C8.85489 2.5407 9.75317 2.13869 10.8036 1.64297C13.5026 0.369246 15.9821 0.067971 18.9328 0Z" fill="#333333"/>
<path d="M25.0204 22.9816C25.3047 23.0187 32.2294 29.9412 32.6243 30.5539C29.5279 33.5626 27.1565 35.0102 22.9574 36.1249C22.5957 36.2288 22.0857 36.2883 21.7026 36.3441L21.6996 34.3611C24.6812 33.9111 27.5036 32.3426 29.8088 30.4965C29.3797 29.9136 28.126 28.7524 27.5639 28.2056C26.2409 26.924 24.9266 25.634 23.6209 24.3355C24.0418 23.8186 24.5127 23.4117 25.0204 22.9816Z" fill="#333333"/>
<path d="M21.6982 0.222412C25.7068 0.628406 30.0355 3.13726 32.6595 6.09885C30.4277 8.36422 28.0091 10.6772 25.7149 12.8878L25.0377 13.6128C24.6462 13.1515 24.038 12.6359 23.574 12.221C25.5162 10.3202 27.8841 7.84664 29.8589 6.07679C27.2859 4.00424 25.025 2.76482 21.6978 2.18616L21.6982 0.222412Z" fill="#333333"/>
<path d="M6.74001 10.5489C7.39688 11.0112 7.72676 11.3926 8.23052 11.9858C5.87481 16.2227 5.77005 20.269 8.23476 24.5071C7.72362 25.0949 7.32944 25.4802 6.7445 25.9907C6.32158 25.1958 5.914 24.4412 5.54612 23.6181C4.88798 21.9077 4.70959 21.0946 4.45215 19.2852L0.0476229 19.2667C-0.014807 18.55 -0.0106507 18.0797 0.0300645 17.3661C1.09935 17.2629 3.3246 17.3174 4.45402 17.3156C4.79967 14.3571 5.32957 13.151 6.74001 10.5489Z" fill="#333333"/>
</svg>
