<svg width="89" height="34" viewBox="0 0 89 34" fill="none" xmlns="http://www.w3.org/2000/svg">
<path d="M35.5585 7.9494C42.5441 7.64543 48.4516 13.0583 48.7476 20.034C49.0436 27.0098 43.6158 32.9022 36.6295 33.1894C29.6552 33.476 23.7664 28.0673 23.4709 21.1034C23.1754 14.1396 28.5849 8.25284 35.5585 7.9494Z" fill="#333333"/>
<path d="M35.6396 12.3493C36.1787 12.3341 36.7031 12.3234 37.2349 12.3767C41.182 12.7726 43.619 15.9498 43.8798 19.7538C44.2088 24.5497 41.6484 28.4696 36.6763 28.7465C34.221 28.7975 32.6103 28.4903 30.6841 26.7761C28.3964 24.7485 28.0976 21.6689 28.4301 18.8023C28.8689 15.0187 31.9298 12.497 35.6396 12.3493Z" fill="black"/>
<path d="M72.0774 14.3014C72.482 12.9229 73.0395 11.6035 73.5644 10.2624C73.7524 9.78188 73.9993 8.95894 74.5283 8.71047C74.8044 8.58087 75.0327 8.48556 75.3369 8.41793C80.2825 7.31825 87.8717 8.6752 88.5787 14.7329C88.7539 16.236 88.6967 17.8282 88.6961 19.3309L88.6955 26.5078C88.6955 28.2216 88.6727 30.5301 88.8707 32.22C88.894 32.394 88.9471 32.6058 88.8666 32.7516C88.2676 32.8684 85.5364 32.8788 84.8259 32.8661C84.7903 32.5052 84.7459 32.1704 84.7728 31.8078C84.7512 30.8944 84.7144 29.9815 84.663 29.0694C84.5305 29.3037 84.3314 29.5867 84.1533 29.7908C82.2909 31.9218 80.3386 33.0314 77.5064 33.279C74.7209 33.5226 72.1678 33.0885 69.9435 31.2867C68.5493 30.1567 67.9637 28.575 67.7903 26.8465C67.6192 25.1399 68.1476 22.7608 69.3123 21.4543C71.57 18.9209 74.6182 18.3126 77.7849 18.0344C78.3232 17.8578 79.5154 17.9663 80.1272 17.8994L80.2428 17.7153L80.1949 17.6309C79.927 17.5586 79.2993 17.6415 78.9502 17.6411L78.9263 17.6067C79.6817 17.4583 83.3546 17.5065 84.3343 17.5058C84.3366 17.149 84.3448 16.7924 84.3576 16.4359C84.2088 13.2006 80.9726 11.3881 78.0324 11.7155C75.5541 11.9913 73.9643 12.6825 72.0774 14.3014Z" fill="#333333"/>
<path d="M84.7728 31.8077C84.8522 31.9633 84.8387 32.2369 84.8434 32.4235C86.0677 32.5337 87.5004 32.5085 88.7954 32.5998C88.8514 32.4333 88.8549 32.3896 88.8707 32.2198C88.894 32.3939 88.9472 32.6057 88.8666 32.7515C88.2676 32.8682 85.5364 32.8787 84.8259 32.866C84.7903 32.505 84.7459 32.1702 84.7728 31.8077Z" fill="#333333"/>
<path d="M81.1746 21.209C81.9353 21.1387 83.5479 21.1809 84.381 21.1823C84.4756 24.0618 84.1457 26.7378 81.5804 28.5624C79.9521 29.7205 77.7084 29.8982 75.7841 29.5529C74.9924 29.3851 74.0548 29.0337 73.4622 28.4863C72.1708 27.2937 72.0015 24.9003 73.2123 23.6127C75.2289 21.4684 78.4575 21.367 81.1746 21.209Z" fill="black"/>
<path d="M13.6496 8.38258C15.667 8.18856 19.0023 8.90627 20.7689 9.92072C21.6266 10.4133 22.6931 11.2612 23.4794 11.8842C22.9781 12.8322 21.0175 14.5462 20.1054 15.2307C18.9645 14.1404 17.5471 13.0348 15.9642 12.7763C13.9058 12.4401 11.763 12.5701 10.0165 13.7948C8.3759 14.9451 7.28817 17.1388 6.97529 19.0677C6.55616 21.6514 6.8556 23.8821 8.38069 26.0439C9.45091 27.5609 10.947 28.5642 12.7691 28.8979C14.4384 29.2036 16.9036 29.0079 18.3187 28.0223C18.9363 27.592 19.5509 27.0281 20.2211 26.5584L20.3589 26.5104C20.6679 26.5774 22.8778 29.0896 23.4016 29.5062C22.1693 31.7284 18.2429 33.0437 15.8248 33.2284C12.8469 33.4764 10.276 33.0312 7.66012 31.558C4.07616 29.5396 2.22624 26.292 1.96264 22.2084C1.74271 18.8018 2.36671 14.9635 4.79527 12.3444C7.15394 9.80074 10.2255 8.61356 13.6496 8.38258Z" fill="#333333"/>
<path d="M47.1309 8.68713C48.6062 8.8316 50.6613 8.6033 52.3258 8.7561C52.5903 9.24779 52.9254 10.1598 53.1589 10.7205C53.7206 12.047 54.2571 13.3842 54.7674 14.7313C55.0336 15.4536 55.242 16.253 55.531 16.957C56.8657 20.2099 58.1296 23.4816 59.4888 26.7255L66.2869 8.73197C67.7862 8.65315 69.6288 8.70917 71.1561 8.72899C70.6499 10.183 70.076 11.5327 69.477 12.9486C68.1704 16.5164 66.7954 20.0587 65.3522 23.5735C64.2085 26.4028 62.8476 29.5632 61.8533 32.4223C60.1643 32.4081 58.4759 32.4054 56.7868 32.4143C56.4897 31.6519 55.9274 30.7304 55.6939 29.9803C54.9851 27.7055 53.9681 25.6268 53.0842 23.4366C51.5621 19.6675 49.9216 15.9591 48.4813 12.1577C48.0375 10.9854 47.5232 9.88802 47.1309 8.68713Z" fill="#333333"/>
<path d="M12.5759 0.0439021C18.1856 -0.312942 23.7153 1.51611 28.0023 5.14646C27.2586 6.11404 25.7179 7.59837 24.812 8.46404C24.4941 8.14632 23.6885 7.58671 23.2909 7.32629C20.7381 5.6543 18.3734 4.97926 15.3757 4.75196C11.7843 4.4962 8.58249 5.15696 5.46168 6.96584C4.57379 7.48044 3.77137 8.09333 2.88412 8.61702C2.26048 7.73963 0.791032 6.13071 0 5.32235C3.50801 2.24793 7.92165 0.395383 12.5759 0.0439021Z" fill="#333333"/>
</svg>
