<svg width="43" height="64" viewBox="0 0 43 64" fill="none" xmlns="http://www.w3.org/2000/svg">
<path d="M10.7554 64C16.6864 64 21.5 59.2214 21.5 53.3334V42.6667H10.7554C4.82434 42.6667 0.0107422 47.4454 0.0107422 53.3334C0.0107422 59.2214 4.82434 64 10.7554 64Z" fill="#0ACF83"/>
<path d="M0.0107422 32C0.0107422 26.112 4.82434 21.3333 10.7554 21.3333H21.5V42.6667H10.7554C4.82434 42.6667 0.0107422 37.888 0.0107422 32Z" fill="#A259FF"/>
<path d="M0.0107422 10.6667C0.0107422 4.77867 4.82434 0 10.7554 0H21.5V21.3333H10.7554C4.82434 21.3333 0.0107422 16.5547 0.0107422 10.6667Z" fill="#F24E1E"/>
<path d="M21.5 0H32.2446C38.1757 0 42.9893 4.77867 42.9893 10.6667C42.9893 16.5547 38.1757 21.3333 32.2446 21.3333H21.5V0Z" fill="#FF7262"/>
<path d="M42.9893 32C42.9893 37.888 38.1757 42.6667 32.2446 42.6667C26.3136 42.6667 21.5 37.888 21.5 32C21.5 26.112 26.3136 21.3333 32.2446 21.3333C38.1757 21.3333 42.9893 26.112 42.9893 32Z" fill="#1ABCFE"/>
</svg>
