<svg width="174" height="37" viewBox="0 0 174 37" fill="none" xmlns="http://www.w3.org/2000/svg">
<path d="M0.43769 15.9755C0.19803 15.5151 0.0534661 15.013 0.0122561 14.498C-0.0289539 13.9829 0.0339976 13.4649 0.197515 12.9737C0.361032 12.4824 0.62191 12.0274 0.965249 11.6348C1.30859 11.2421 1.72766 10.9195 2.19852 10.6853L22.7862 0.428557C23.2561 0.194269 23.7685 0.0527856 24.2943 0.0121862C24.8201 -0.0284133 25.3489 0.0326659 25.8505 0.191936C26.3522 0.351207 26.8168 0.60555 27.218 0.940443C27.6191 1.27534 27.9489 1.68422 28.1884 2.14375C28.428 2.60328 28.5726 3.10446 28.6142 3.61867C28.6557 4.13288 28.5932 4.65005 28.4304 5.14066C28.2675 5.63126 28.0074 6.08569 27.665 6.478C27.3226 6.87031 26.9045 7.19281 26.4346 7.4271L5.84697 17.6907C4.89671 18.1627 3.79394 18.2472 2.78011 17.9258C1.76627 17.6043 0.923994 16.903 0.43769 15.9755Z" fill="#333333"/>
<path d="M5.22736 25.1582C4.98759 24.6987 4.84277 24.1975 4.80115 23.6832C4.75953 23.169 4.82194 22.6517 4.98482 22.1611C5.14769 21.6704 5.40783 21.216 5.75037 20.8237C6.09291 20.4314 6.51114 20.109 6.98115 19.8748L20.4269 13.1794C21.3686 12.7715 22.4345 12.7326 23.4047 13.0707C24.375 13.4087 25.1756 14.0979 25.6416 14.9962C26.1077 15.8944 26.2035 16.9334 25.9095 17.8987C25.6154 18.8641 24.9539 19.6823 24.0612 20.1848L10.6296 26.8734C10.1598 27.1078 9.64729 27.2495 9.12146 27.2902C8.59563 27.3309 8.06676 27.2699 7.56506 27.1106C7.06336 26.9513 6.59868 26.6969 6.19756 26.3619C5.79645 26.0269 5.46677 25.6178 5.22736 25.1582Z" fill="#333333"/>
<path d="M10.009 34.3393C9.52668 33.411 9.44046 32.3335 9.76922 31.3431C10.098 30.3527 10.8149 29.5302 11.7628 29.0559L18.3131 25.7633C19.2658 25.2883 20.3724 25.2029 21.3894 25.5259C22.4065 25.8488 23.2508 26.5537 23.7364 27.4854C24.2221 28.4171 24.3095 29.4994 23.9792 30.4941C23.649 31.4888 22.9283 32.3144 21.9756 32.7894L15.4112 36.0958C14.9389 36.3288 14.4241 36.4682 13.8964 36.506C13.3688 36.5438 12.8387 36.4792 12.3367 36.316C11.8347 36.1527 11.3706 35.8941 10.9711 35.5548C10.5717 35.2156 10.2447 34.8025 10.009 34.3393Z" fill="#333333"/>
<path d="M30.1671 22.3209C30.1705 21.7718 30.2898 21.2293 30.5172 20.7275C30.7447 20.2257 31.0755 19.7755 31.4889 19.405L31.6366 19.2809C32.4088 18.6677 33.3846 18.3553 34.3771 18.4037C35.3696 18.452 36.309 18.8576 37.0154 19.5428L37.2826 19.8324C37.8648 20.5388 38.1824 21.4196 38.1824 22.3278C38.1824 23.236 37.8648 24.1167 37.2826 24.8232C37.199 24.9244 37.1098 25.0211 37.0154 25.1127C36.4506 25.6553 35.7354 26.0229 34.9589 26.1697C34.1825 26.3166 33.3791 26.2361 32.6489 25.9385C31.9188 25.6408 31.2941 25.1391 30.8528 24.4958C30.4115 23.8525 30.173 23.0961 30.1671 22.3209Z" fill="#333333"/>
<path d="M47.9439 20.932V3.22675H60.0576V6.70209H52.2331V10.333H59.2864V13.817H52.2331V20.932H47.9439Z" fill="#333333"/>
<path d="M65.7548 21.1568C64.9056 21.1568 64.1517 21.0155 63.4932 20.7331C62.8404 20.445 62.3234 20.0127 61.9422 19.4364C61.5667 18.8543 61.379 18.1252 61.379 17.2492C61.379 16.5114 61.5089 15.889 61.7689 15.3818C62.0288 14.8746 62.387 14.4625 62.8433 14.1456C63.2997 13.8286 63.8254 13.5894 64.4204 13.428C65.0154 13.2609 65.6508 13.1485 66.3267 13.0908C67.0834 13.0217 67.6928 12.9496 68.155 12.8747C68.6171 12.794 68.9521 12.6816 69.1601 12.5376C69.3738 12.3877 69.4807 12.1773 69.4807 11.9065V11.8632C69.4807 11.4195 69.3276 11.0765 69.0215 10.8345C68.7153 10.5924 68.3023 10.4714 67.7824 10.4714C67.222 10.4714 66.7715 10.5924 66.4306 10.8345C66.0898 11.0765 65.8732 11.4108 65.7808 11.8373L61.8729 11.699C61.9884 10.8921 62.2859 10.1717 62.7654 9.53769C63.2506 8.89795 63.9149 8.39654 64.7583 8.03344C65.6075 7.66458 66.627 7.48015 67.817 7.48015C68.6662 7.48015 69.4489 7.58101 70.1652 7.78273C70.8815 7.97869 71.5054 8.26686 72.0369 8.64724C72.5683 9.02187 72.9785 9.48294 73.2673 10.0305C73.5619 10.578 73.7092 11.2033 73.7092 11.9065V20.932H69.7233V19.0819H69.6193C69.3825 19.5315 69.0792 19.9119 68.7095 20.2231C68.3456 20.5343 67.9152 20.7677 67.4184 20.9233C66.9274 21.0789 66.3729 21.1568 65.7548 21.1568ZM67.0632 18.3903C67.5195 18.3903 67.9297 18.2981 68.2936 18.1137C68.6633 17.9292 68.9579 17.6756 69.1774 17.3529C69.3969 17.0244 69.5067 16.644 69.5067 16.2117V14.9495C69.3854 15.0129 69.2381 15.0706 69.0648 15.1224C68.8973 15.1743 68.7124 15.2233 68.5102 15.2694C68.308 15.3155 68.1001 15.3559 67.8863 15.3904C67.6726 15.425 67.4675 15.4567 67.2711 15.4855C66.8725 15.5489 66.5317 15.6469 66.2487 15.7795C65.9714 15.912 65.7577 16.0849 65.6075 16.2982C65.463 16.5057 65.3908 16.7535 65.3908 17.0417C65.3908 17.4797 65.5468 17.814 65.8587 18.0445C66.1765 18.275 66.5779 18.3903 67.0632 18.3903Z" fill="#333333"/>
<path d="M76.3 20.932V7.65306H80.5372V20.932H76.3ZM78.4229 6.10558C77.8279 6.10558 77.3167 5.90962 76.8892 5.51771C76.4618 5.12003 76.248 4.64167 76.248 4.08261C76.248 3.52933 76.4618 3.05673 76.8892 2.66481C77.3167 2.26714 77.8279 2.0683 78.4229 2.0683C79.0237 2.0683 79.5349 2.26714 79.9566 2.66481C80.3841 3.05673 80.5978 3.52933 80.5978 4.08261C80.5978 4.64167 80.3841 5.12003 79.9566 5.51771C79.5349 5.90962 79.0237 6.10558 78.4229 6.10558Z" fill="#333333"/>
<path d="M83.2341 20.932V7.65306H87.35V10.0737H87.4886C87.7313 9.19765 88.127 8.54639 88.6757 8.11989C89.2245 7.68764 89.8628 7.47151 90.5907 7.47151C90.7871 7.47151 90.9893 7.48592 91.1973 7.51473C91.4052 7.53779 91.5987 7.57525 91.7778 7.62712V11.3013C91.5756 11.2321 91.3099 11.1774 90.9806 11.137C90.6571 11.0967 90.3683 11.0765 90.1141 11.0765C89.6116 11.0765 89.1581 11.1889 88.7537 11.4137C88.3551 11.6327 88.0403 11.941 87.8092 12.3387C87.584 12.7306 87.4713 13.1917 87.4713 13.7219V20.932H83.2341Z" fill="#333333"/>
<path d="M93.5043 3.22675H98.8159L103.322 14.1888H103.53L108.035 3.22675H113.347V20.932H109.171V10.0564H109.023L104.76 20.8196H102.091L97.8281 9.99589H97.6808V20.932H93.5043V3.22675Z" fill="#333333"/>
<path d="M122.235 21.1827C120.837 21.1827 119.636 20.8974 118.631 20.3268C117.631 19.7505 116.86 18.9494 116.317 17.9235C115.78 16.8918 115.511 15.6959 115.511 14.3357C115.511 12.9698 115.78 11.7739 116.317 10.748C116.86 9.71636 117.631 8.91524 118.631 8.34467C119.636 7.76832 120.837 7.48015 122.235 7.48015C123.633 7.48015 124.832 7.76832 125.831 8.34467C126.836 8.91524 127.607 9.71636 128.145 10.748C128.688 11.7739 128.959 12.9698 128.959 14.3357C128.959 15.6959 128.688 16.8918 128.145 17.9235C127.607 18.9494 126.836 19.7505 125.831 20.3268C124.832 20.8974 123.633 21.1827 122.235 21.1827ZM122.261 17.9926C122.769 17.9926 123.2 17.837 123.552 17.5258C123.905 17.2146 124.173 16.7823 124.358 16.229C124.549 15.6757 124.644 15.036 124.644 14.3098C124.644 13.5721 124.549 12.9266 124.358 12.3733C124.173 11.82 123.905 11.3878 123.552 11.0765C123.2 10.7653 122.769 10.6097 122.261 10.6097C121.735 10.6097 121.291 10.7653 120.927 11.0765C120.569 11.3878 120.294 11.82 120.104 12.3733C119.919 12.9266 119.826 13.5721 119.826 14.3098C119.826 15.036 119.919 15.6757 120.104 16.229C120.294 16.7823 120.569 17.2146 120.927 17.5258C121.291 17.837 121.735 17.9926 122.261 17.9926Z" fill="#333333"/>
<path d="M135.367 13.3588V20.932H131.13V7.65306H135.159V10.091H135.306C135.601 9.27834 136.103 8.64148 136.814 8.18041C137.524 7.71357 138.371 7.48015 139.353 7.48015C140.289 7.48015 141.1 7.69052 141.788 8.11125C142.481 8.52621 143.018 9.10832 143.399 9.85756C143.786 10.601 143.977 11.4713 143.971 12.4684V20.932H139.734V13.2983C139.74 12.5606 139.552 11.9843 139.171 11.5693C138.795 11.1543 138.273 10.9469 137.602 10.9469C137.158 10.9469 136.765 11.0448 136.424 11.2408C136.089 11.431 135.829 11.7047 135.644 12.0621C135.465 12.4194 135.373 12.8517 135.367 13.3588Z" fill="#333333"/>
<path d="M152.816 21.1827C151.424 21.1827 150.222 20.9089 149.211 20.3614C148.206 19.8081 147.432 19.0214 146.889 18.0013C146.352 16.9754 146.083 15.7564 146.083 14.3444C146.083 12.9727 146.355 11.7739 146.898 10.748C147.441 9.71636 148.206 8.91524 149.194 8.34467C150.182 7.76832 151.346 7.48015 152.686 7.48015C153.633 7.48015 154.5 7.62712 155.285 7.92105C156.071 8.21499 156.75 8.65013 157.322 9.22647C157.894 9.80281 158.338 10.5146 158.656 11.3618C158.974 12.2033 159.133 13.1686 159.133 14.2579V15.3126H147.565V12.8574H155.19C155.184 12.4079 155.077 12.0073 154.87 11.6558C154.662 11.3042 154.376 11.0304 154.012 10.8345C153.654 10.6327 153.241 10.5319 152.773 10.5319C152.299 10.5319 151.874 10.6385 151.499 10.8518C151.123 11.0592 150.826 11.3445 150.606 11.7076C150.387 12.065 150.271 12.4713 150.26 12.9266V15.425C150.26 15.9668 150.367 16.4423 150.58 16.8515C150.794 17.2549 151.097 17.569 151.49 17.7938C151.883 18.0186 152.351 18.131 152.894 18.131C153.269 18.131 153.61 18.0791 153.916 17.9753C154.223 17.8716 154.485 17.7189 154.705 17.5172C154.924 17.3154 155.089 17.0676 155.199 16.7737L159.089 16.8861C158.928 17.7563 158.572 18.5142 158.024 19.1597C157.481 19.7995 156.767 20.298 155.883 20.6553C155 21.0069 153.977 21.1827 152.816 21.1827Z" fill="#333333"/>
<path d="M163.53 25.9116C163.022 25.9116 162.542 25.8712 162.092 25.7905C161.641 25.7156 161.254 25.6148 160.931 25.488L161.866 22.4189C162.282 22.5573 162.658 22.638 162.993 22.661C163.334 22.6841 163.625 22.6293 163.868 22.4967C164.116 22.37 164.307 22.1423 164.44 21.8138L164.605 21.4161L159.874 7.65306H164.31L166.762 17.1281H166.901L169.388 7.65306H173.85L168.833 22.2028C168.59 22.929 168.247 23.5687 167.802 24.122C167.363 24.6811 166.794 25.1191 166.095 25.4361C165.402 25.7531 164.547 25.9116 163.53 25.9116Z" fill="#333333"/>
<path d="M47.9439 34.3341V26.3667H51.1413C51.7288 26.3667 52.2188 26.4536 52.6113 26.6274C53.0038 26.8012 53.2989 27.0424 53.4964 27.351C53.694 27.657 53.7928 28.0098 53.7928 28.4092C53.7928 28.7204 53.7304 28.994 53.6056 29.23C53.4808 29.4634 53.3093 29.6554 53.0909 29.8058C52.8752 29.9536 52.6282 30.0586 52.3501 30.1209V30.1987C52.6542 30.2117 52.9389 30.2973 53.204 30.4555C53.4718 30.6137 53.6888 30.8354 53.8552 31.1207C54.0215 31.4034 54.1047 31.7406 54.1047 32.1322C54.1047 32.5549 53.9994 32.9323 53.7889 33.2643C53.5809 33.5936 53.2729 33.8543 52.8648 34.0462C52.4566 34.2381 51.9536 34.3341 51.3558 34.3341H47.9439ZM49.6323 32.9569H51.0087C51.4792 32.9569 51.8224 32.8675 52.0381 32.6885C52.2539 32.507 52.3618 32.2657 52.3618 31.9649C52.3618 31.7444 52.3085 31.5499 52.2019 31.3814C52.0953 31.2128 51.9433 31.0805 51.7457 30.9845C51.5507 30.8886 51.3181 30.8406 51.0477 30.8406H49.6323V32.9569ZM49.6323 29.7007H50.884C51.1153 29.7007 51.3207 29.6605 51.5 29.5801C51.682 29.4971 51.825 29.3804 51.929 29.23C52.0355 29.0796 52.0888 28.8993 52.0888 28.6893C52.0888 28.4014 51.9861 28.1693 51.7808 27.9929C51.578 27.8165 51.2895 27.7284 50.9152 27.7284H49.6323V29.7007Z" fill="#333333"/>
<path d="M59.0129 31.7898V28.3586H60.674V34.3341H59.0792V33.2487H59.0168C58.8816 33.5988 58.6568 33.8802 58.3422 34.0929C58.0303 34.3056 57.6495 34.4119 57.1997 34.4119C56.7994 34.4119 56.4472 34.3211 56.143 34.1396C55.8389 33.958 55.6011 33.7 55.4295 33.3654C55.2605 33.0308 55.1747 32.6301 55.1721 32.1633V28.3586H56.8332V31.8676C56.8358 32.2204 56.9307 32.4992 57.1179 32.7041C57.305 32.9089 57.5559 33.0114 57.8704 33.0114C58.0706 33.0114 58.2577 32.966 58.4319 32.8752C58.6061 32.7819 58.7464 32.6444 58.853 32.4629C58.9622 32.2813 59.0155 32.057 59.0129 31.7898Z" fill="#333333"/>
<path d="M66.9858 30.0625L65.4651 30.1559C65.4391 30.0262 65.3833 29.9095 65.2975 29.8058C65.2117 29.6994 65.0986 29.6152 64.9582 29.5529C64.8205 29.4881 64.6554 29.4557 64.463 29.4557C64.2057 29.4557 63.9886 29.5101 63.8119 29.619C63.6351 29.7254 63.5467 29.868 63.5467 30.047C63.5467 30.1896 63.6039 30.3102 63.7183 30.4088C63.8327 30.5073 64.0289 30.5864 64.3071 30.6461L65.3911 30.8639C65.9733 30.9832 66.4075 31.1752 66.6934 31.4397C66.9793 31.7043 67.1223 32.0518 67.1223 32.4823C67.1223 32.8739 67.0066 33.2176 66.7753 33.5132C66.5465 33.8089 66.232 34.0397 65.8317 34.2057C65.4339 34.3691 64.9751 34.4508 64.4552 34.4508C63.6624 34.4508 63.0307 34.2861 62.5602 33.9567C62.0923 33.6248 61.8181 33.1735 61.7375 32.6029L63.3713 32.5173C63.4206 32.7585 63.5402 32.9427 63.73 33.0697C63.9197 33.1942 64.1628 33.2565 64.4591 33.2565C64.7503 33.2565 64.9842 33.2007 65.161 33.0892C65.3404 32.9751 65.4313 32.8285 65.4339 32.6496C65.4313 32.4992 65.3677 32.376 65.2429 32.28C65.1181 32.1815 64.9257 32.1062 64.6658 32.0544L63.6286 31.8482C63.0437 31.7315 62.6083 31.5292 62.3224 31.2413C62.039 30.9534 61.8973 30.5864 61.8973 30.1403C61.8973 29.7565 62.0013 29.4258 62.2093 29.1483C62.4198 28.8708 62.7149 28.6568 63.0944 28.5064C63.4765 28.356 63.9236 28.2808 64.4357 28.2808C65.1922 28.2808 65.7875 28.4403 66.2216 28.7593C66.6583 29.0783 66.9131 29.5127 66.9858 30.0625Z" fill="#333333"/>
<path d="M68.1683 34.3341V28.3586H69.8294V34.3341H68.1683ZM69.0027 27.5883C68.7558 27.5883 68.5439 27.5066 68.3671 27.3432C68.193 27.1772 68.1059 26.9788 68.1059 26.748C68.1059 26.5198 68.193 26.3239 68.3671 26.1606C68.5439 25.9946 68.7558 25.9116 69.0027 25.9116C69.2497 25.9116 69.4602 25.9946 69.6344 26.1606C69.8112 26.3239 69.8995 26.5198 69.8995 26.748C69.8995 26.9788 69.8112 27.1772 69.6344 27.3432C69.4602 27.5066 69.2497 27.5883 69.0027 27.5883Z" fill="#333333"/>
<path d="M72.821 30.8795V34.3341H71.16V28.3586H72.7431V29.4129H72.8132C72.9458 29.0653 73.1681 28.7904 73.48 28.5881C73.7919 28.3832 74.1702 28.2808 74.6147 28.2808C75.0306 28.2808 75.3932 28.3715 75.7026 28.5531C76.0119 28.7346 76.2524 28.994 76.4239 29.3312C76.5955 29.6657 76.6813 30.0651 76.6813 30.5294V34.3341H75.0202V30.825C75.0228 30.4594 74.9292 30.1741 74.7395 29.9692C74.5497 29.7617 74.2884 29.6579 73.9557 29.6579C73.7322 29.6579 73.5346 29.7059 73.363 29.8019C73.1941 29.8978 73.0615 30.0379 72.9653 30.222C72.8717 30.4036 72.8236 30.6227 72.821 30.8795Z" fill="#333333"/>
<path d="M80.7199 34.4508C80.1038 34.4508 79.5735 34.3263 79.129 34.0773C78.6871 33.8258 78.3466 33.4704 78.1074 33.0114C77.8683 32.5497 77.7487 32.0038 77.7487 31.3736C77.7487 30.7589 77.8683 30.2194 78.1074 29.7552C78.3466 29.291 78.6832 28.9292 79.1173 28.6698C79.554 28.4105 80.0661 28.2808 80.6536 28.2808C81.0487 28.2808 81.4166 28.3443 81.7571 28.4714C82.1002 28.5959 82.3992 28.7839 82.6539 29.0355C82.9113 29.2871 83.1114 29.6035 83.2544 29.9847C83.3974 30.3634 83.4689 30.8069 83.4689 31.3152V31.7704H78.4116V30.7433H81.9053C81.9053 30.5047 81.8533 30.2934 81.7493 30.1092C81.6453 29.9251 81.5011 29.7811 81.3165 29.6774C81.1345 29.5711 80.9227 29.5179 80.6809 29.5179C80.4288 29.5179 80.2052 29.5763 80.0102 29.693C79.8179 29.8071 79.6671 29.9614 79.5579 30.1559C79.4488 30.3478 79.3929 30.5618 79.3903 30.7978V31.7743C79.3903 32.0699 79.4449 32.3254 79.554 32.5407C79.6658 32.7559 79.8231 32.9219 80.0258 33.0386C80.2286 33.1553 80.4691 33.2137 80.7472 33.2137C80.9318 33.2137 81.1007 33.1878 81.2541 33.1359C81.4075 33.084 81.5387 33.0062 81.6479 32.9025C81.7571 32.7987 81.8403 32.6716 81.8975 32.5212L83.4338 32.6224C83.3558 32.9906 83.1959 33.3122 82.9542 33.5872C82.715 33.8595 82.4057 34.0722 82.0261 34.2252C81.6492 34.3756 81.2138 34.4508 80.7199 34.4508Z" fill="#333333"/>
<path d="M89.5361 30.0625L88.0154 30.1559C87.9894 30.0262 87.9335 29.9095 87.8477 29.8058C87.7619 29.6994 87.6488 29.6152 87.5085 29.5529C87.3707 29.4881 87.2056 29.4557 87.0133 29.4557C86.7559 29.4557 86.5389 29.5101 86.3621 29.619C86.1853 29.7254 86.0969 29.868 86.0969 30.047C86.0969 30.1896 86.1541 30.3102 86.2685 30.4088C86.3829 30.5073 86.5792 30.5864 86.8573 30.6461L87.9413 30.8639C88.5236 30.9832 88.9577 31.1752 89.2436 31.4397C89.5296 31.7043 89.6725 32.0518 89.6725 32.4823C89.6725 32.8739 89.5569 33.2176 89.3255 33.5132C89.0968 33.8089 88.7822 34.0397 88.3819 34.2057C87.9842 34.3691 87.5254 34.4508 87.0055 34.4508C86.2126 34.4508 85.5809 34.2861 85.1104 33.9567C84.6425 33.6248 84.3683 33.1735 84.2877 32.6029L85.9215 32.5173C85.9709 32.7585 86.0904 32.9427 86.2802 33.0697C86.47 33.1942 86.713 33.2565 87.0094 33.2565C87.3005 33.2565 87.5345 33.2007 87.7112 33.0892C87.8906 32.9751 87.9816 32.8285 87.9842 32.6496C87.9816 32.4992 87.9179 32.376 87.7931 32.28C87.6683 32.1815 87.476 32.1062 87.216 32.0544L86.1788 31.8482C85.5939 31.7315 85.1585 31.5292 84.8726 31.2413C84.5892 30.9534 84.4476 30.5864 84.4476 30.1403C84.4476 29.7565 84.5516 29.4258 84.7595 29.1483C84.9701 28.8708 85.2651 28.6568 85.6446 28.5064C86.0268 28.356 86.4739 28.2808 86.986 28.2808C87.7424 28.2808 88.3377 28.4403 88.7718 28.7593C89.2085 29.0783 89.4633 29.5127 89.5361 30.0625Z" fill="#333333"/>
<path d="M95.7017 30.0625L94.181 30.1559C94.155 30.0262 94.0991 29.9095 94.0134 29.8058C93.9276 29.6994 93.8145 29.6152 93.6741 29.5529C93.5364 29.4881 93.3713 29.4557 93.1789 29.4557C92.9216 29.4557 92.7045 29.5101 92.5278 29.619C92.351 29.7254 92.2626 29.868 92.2626 30.047C92.2626 30.1896 92.3198 30.3102 92.4342 30.4088C92.5485 30.5073 92.7448 30.5864 93.023 30.6461L94.1069 30.8639C94.6892 30.9832 95.1233 31.1752 95.4093 31.4397C95.6952 31.7043 95.8382 32.0518 95.8382 32.4823C95.8382 32.8739 95.7225 33.2176 95.4912 33.5132C95.2624 33.8089 94.9479 34.0397 94.5476 34.2057C94.1498 34.3691 93.691 34.4508 93.1711 34.4508C92.3783 34.4508 91.7466 34.2861 91.2761 33.9567C90.8082 33.6248 90.5339 33.1735 90.4534 32.6029L92.0871 32.5173C92.1365 32.7585 92.2561 32.9427 92.4459 33.0697C92.6356 33.1942 92.8787 33.2565 93.175 33.2565C93.4662 33.2565 93.7001 33.2007 93.8769 33.0892C94.0563 32.9751 94.1472 32.8285 94.1498 32.6496C94.1472 32.4992 94.0835 32.376 93.9588 32.28C93.834 32.1815 93.6416 32.1062 93.3817 32.0544L92.3445 31.8482C91.7596 31.7315 91.3242 31.5292 91.0382 31.2413C90.7549 30.9534 90.6132 30.5864 90.6132 30.1403C90.6132 29.7565 90.7172 29.4258 90.9252 29.1483C91.1357 28.8708 91.4308 28.6568 91.8103 28.5064C92.1924 28.356 92.6395 28.2808 93.1516 28.2808C93.9081 28.2808 94.5034 28.4403 94.9375 28.7593C95.3742 29.0783 95.6289 29.5127 95.7017 30.0625Z" fill="#333333"/>
</svg>
