<svg width="149" height="31" viewBox="0 0 149 31" fill="none" xmlns="http://www.w3.org/2000/svg">
<path d="M1.9038 0.0526123H8.91944V7.69102H11.4228V1.9624C11.4228 0.895429 11.9044 0.0526123 12.692 0.0526123H27.9224C28.8368 0.0526123 29.8262 0.895429 29.8262 1.9624V5.78197C29.8262 6.54736 28.8368 7.69102 27.9224 7.69102H11.4228V9.60154H19.6726V28.0628C19.6726 29.1298 19.0602 29.336 17.9951 29.336H13.0093C11.9442 29.336 11.4228 28.8115 11.4228 27.7445V9.60154V7.69102H8.91944H1.92853C0.863431 7.69102 0 6.82607 0 5.7591V1.87387C0 0.806904 0.838706 0.0526123 1.9038 0.0526123Z" fill="#333333"/>
<path d="M27.923 7.69475H11.4234V1.96539C11.4234 0.878114 11.7197 -0.18858 13.1716 0.0282965C13.2753 0.0437881 13.38 0.0556096 13.4849 0.055612L27.923 0.0559507C29.0913 0.0559507 29.8268 0.840674 29.8268 1.96574V5.7853C29.8268 6.91037 29.0913 7.69475 27.923 7.69475Z" fill="#333333"/>
<path d="M43.6874 8.28464H37.3764C36.7143 8.28464 36.1776 7.74449 36.1776 7.07819V3.70654C36.1776 3.04024 36.7143 2.50009 37.3764 2.50009H56.2494C56.9115 2.50009 57.4482 3.04024 57.4482 3.70654V7.07819C57.4482 7.74449 56.9115 8.28464 56.2494 8.28464H49.9383V29.5494H43.6874V8.28464Z" fill="#333333"/>
<path d="M63.8986 8.02171C64.5607 8.02171 65.0974 8.56185 65.0974 9.22816V29.5494H59.1937V9.22816C59.1937 8.56185 59.7304 8.02171 60.3925 8.02171H63.8986ZM64.0288 0.791016C64.6909 0.791016 65.2276 1.33116 65.2276 1.99747V3.87916C65.2276 4.54546 64.6909 5.08561 64.0288 5.08561H60.2623C59.6002 5.08561 59.0635 4.54546 59.0635 3.87916V1.99747C59.0635 1.33116 59.6002 0.791016 60.2623 0.791016H64.0288Z" fill="#333333"/>
<path d="M74.0232 8.02171C74.6852 8.02171 75.222 8.56185 75.222 9.22816V13.5871H75.6561C76.8281 9.55549 79.3025 7.45202 82.5582 7.45202C86.2046 7.45202 88.0278 9.81843 88.2448 13.6748H88.7223C89.851 9.51167 92.1517 7.45202 95.581 7.45202C99.6181 7.45202 101.658 10.2128 101.658 14.7265V29.5494H95.7112V16.3918C95.7112 14.2883 94.7128 12.8422 92.5858 12.8422C90.0246 12.8422 88.5053 14.6389 88.5053 17.2244V29.5494H82.6016V16.3918C82.6016 14.2883 81.6032 12.8422 79.4761 12.8422C76.9149 12.8422 75.3522 14.6389 75.3522 17.2244V29.5494H69.4485V9.22816C69.4485 8.56185 69.9852 8.02171 70.6473 8.02171H74.0232Z" fill="#333333"/>
<path d="M115.331 30.163C108.602 30.163 104.695 25.2439 104.695 18.4076C104.695 11.5275 108.776 7.45202 115.331 7.45202C121.755 7.45202 125.879 11.5275 125.879 18.4076C125.879 25.2439 121.885 30.163 115.331 30.163ZM115.287 12.4478C112.031 12.4478 110.599 14.6389 110.599 18.3638C110.599 22.1763 111.945 24.3236 115.287 24.3236C118.586 24.3236 119.975 22.1763 119.975 18.3638C119.975 14.6389 118.543 12.4478 115.287 12.4478Z" fill="#333333"/>
<path d="M133.626 8.02171C134.288 8.02171 134.825 8.56185 134.825 9.22816V13.5871H135.259C136.431 9.55549 138.906 7.45202 142.161 7.45202C146.112 7.45202 148.108 10.2128 148.108 14.7265V29.5494H142.205V16.3918C142.205 14.2883 141.206 12.8422 139.079 12.8422C136.518 12.8422 134.955 14.6389 134.955 17.2244V29.5494H129.052V9.22816C129.052 8.56185 129.588 8.02171 130.251 8.02171H133.626Z" fill="#333333"/>
</svg>
